<svg width="40" height="46" viewBox="0 0 40 46" fill="none" xmlns="http://www.w3.org/2000/svg">
<path d="M4.625 46C3.85753 45.9986 3.10365 45.7974 2.4375 45.4163C0.937505 44.5663 0.00500488 42.9163 0.00500488 41.125V4.87501C0.00500488 3.07876 0.937505 1.43376 2.4375 0.583757C3.11951 0.191802 3.89428 -0.00976116 4.68083 0.000133924C5.46737 0.010029 6.23683 0.23102 6.90876 0.640007L37.89 19.185C38.5357 19.5899 39.068 20.1521 39.4369 20.8189C39.8059 21.4858 39.9994 22.2354 39.9994 22.9975C39.9994 23.7596 39.8059 24.5092 39.4369 25.1761C39.068 25.8429 38.5357 26.4051 37.89 26.81L6.90375 45.36C6.21612 45.7757 5.42852 45.9969 4.625 46Z" fill="white" fill-opacity="0.85"/>
</svg>
